<svg width="133" height="48" fill="none" xmlns="http://www.w3.org/2000/svg"><path d="M59 6.56c1.64 0 2.907.573 3.8 1.72.893 1.147 1.34 2.807 1.34 4.98 0 1.6-.26 3.007-.78 4.22-.52 1.213-1.24 2.153-2.16 2.82-.92.653-1.973.98-3.16.98-1.027 0-1.873-.193-2.54-.58-.32-.173-.587-.4-.8-.68a1.67 1.67 0 01-.3-.96c0-.44.147-.8.44-1.08.307-.28.7-.42 1.18-.42.453 0 .813.133 1.08.4.28.253.42.6.42 1.04 0 .32-.107.627-.32.92-.213.28-.52.48-.92.6.187.133.42.233.7.3.28.067.553.1.82.1.973 0 1.767-.553 2.38-1.66.627-1.12.94-3.007.94-5.66v-.28c-.48 1.653-1.553 2.48-3.22 2.48a4.082 4.082 0 01-1.98-.5c-.613-.333-1.113-.833-1.5-1.5-.373-.68-.56-1.493-.56-2.44 0-1.027.22-1.9.66-2.62a4.25 4.25 0 011.84-1.62c.773-.373 1.653-.56 2.64-.56zm-.34 8.72c.48 0 .96-.24 1.44-.72s.813-1.267 1-2.36c-.147-3.493-.88-5.24-2.2-5.24-.613 0-1.107.353-1.48 1.06-.36.693-.54 1.793-.54 3.3 0 1.347.153 2.347.46 3 .32.64.76.96 1.32.96zm14.269-1.72c1.733.133 3.007.533 3.82 1.2.813.667 1.22 1.453 1.22 2.36 0 1.24-.487 2.2-1.46 2.88-.973.667-2.327 1-4.06 1-.387 0-.713-.007-.98-.02-.88-.027-1.74-.04-2.58-.04-1.373 0-2.4.02-3.08.06v-.4c.44-.027.76-.08.96-.16a.663.663 0 00.42-.46c.08-.227.12-.593.12-1.1V8.96c0-.507-.04-.873-.12-1.1a.663.663 0 00-.42-.46c-.2-.08-.52-.133-.96-.16v-.4c.68.04 1.693.06 3.04.06l2.22-.02c.267-.013.573-.02.92-.02 1.6 0 2.82.287 3.66.86.853.573 1.28 1.333 1.28 2.28 0 .773-.34 1.493-1.02 2.16-.667.667-1.66 1.12-2.98 1.36v.04zm-1.2-6.32c-.36 0-.627.047-.8.14-.16.093-.273.26-.34.5s-.1.6-.1 1.08v4.52h.86c.867 0 1.473-.293 1.82-.88.347-.6.52-1.393.52-2.38 0-1-.16-1.747-.48-2.24-.307-.493-.8-.74-1.48-.74zm.14 13.3c1.853 0 2.78-1.167 2.78-3.5 0-1.053-.267-1.853-.8-2.4-.533-.547-1.373-.82-2.52-.82h-.84v5.06c0 .48.033.833.1 1.06a.739.739 0 00.38.48c.2.08.5.12.9.12zm18.644-1.22c.173.44.373.76.6.96.227.2.447.307.66.32v.4c-.8-.04-1.813-.06-3.04-.06-1.36 0-2.373.02-3.04.06v-.4c.507-.027.867-.087 1.08-.18.213-.107.32-.287.32-.54 0-.24-.08-.56-.24-.96l-1.2-3.28h-4.36l-.52 1.38c-.373.96-.56 1.7-.56 2.22 0 .493.147.84.44 1.04.307.187.753.293 1.34.32v.4a56.67 56.67 0 00-2.48-.06c-.613 0-1.12.02-1.52.06v-.4c.653-.12 1.227-.82 1.72-2.1l4.56-11.7c.147.013.38.02.7.02.32 0 .547-.007.68-.02l4.86 12.52zm-5-4.08l-1.98-5.4-2.08 5.4h4.06zm19.969 4.88c-.36.413-.746.707-1.16.88-.413.187-.913.28-1.5.28-.773 0-1.386-.16-1.84-.48-.44-.333-.726-.893-.86-1.68l-.36-2c-.173-.973-.386-1.687-.64-2.14-.24-.467-.647-.7-1.22-.7h-1.3v4.6c0 .507.033.873.1 1.1.08.227.22.38.42.46.2.08.527.133.98.16v.4c-.72-.04-1.727-.06-3.02-.06-1.426 0-2.48.02-3.16.06v-.4c.44-.027.76-.08.96-.16a.663.663 0 00.42-.46c.08-.227.12-.593.12-1.1V8.96c0-.507-.04-.873-.12-1.1a.663.663 0 00-.42-.46c-.2-.08-.52-.133-.96-.16v-.4c.68.04 1.694.06 3.04.06l2.22-.02c.267-.013.573-.02.92-.02 1.84 0 3.22.3 4.14.9.934.6 1.4 1.46 1.4 2.58 0 .947-.346 1.78-1.04 2.5-.693.72-1.84 1.173-3.44 1.36 1.2.107 2.094.367 2.68.78.587.413.967 1.033 1.14 1.86l.46 2.06c.107.533.227.907.36 1.12.147.213.347.32.6.32a.88.88 0 00.4-.12c.12-.067.254-.18.4-.34l.28.24zm-7.64-12.88c-.36 0-.626.047-.8.14-.16.093-.273.26-.34.5s-.1.6-.1 1.08v4.92h.86c1.093 0 1.84-.287 2.24-.86.414-.587.62-1.407.62-2.46 0-1.093-.193-1.92-.58-2.48-.386-.56-1.02-.84-1.9-.84z" fill="#F5D31E"/><path d="M60.94 30.56c.8 0 1.48.113 2.04.34.56.227 1.107.547 1.64.96.147.12.273.18.38.18.267 0 .44-.4.52-1.2h.46c-.053.907-.08 2.52-.08 4.84h-.46c-.12-.987-.28-1.74-.48-2.26-.2-.52-.54-.973-1.02-1.36-.333-.32-.72-.56-1.16-.72-.44-.173-.9-.26-1.38-.26-1.347 0-2.347.66-3 1.98-.653 1.307-.98 2.94-.98 4.9 0 1.947.34 3.573 1.02 4.88.68 1.307 1.693 1.96 3.04 1.96.453 0 .9-.08 1.34-.24.453-.173.833-.42 1.14-.74.493-.373.833-.84 1.02-1.4.2-.56.353-1.38.46-2.46h.46c0 2.413.027 4.093.08 5.04h-.46c-.04-.427-.1-.727-.18-.9-.067-.187-.167-.28-.3-.28-.107 0-.247.053-.42.16-.6.427-1.173.753-1.72.98-.547.213-1.207.32-1.98.32-1.413 0-2.653-.287-3.72-.86a6.04 6.04 0 01-2.46-2.48c-.587-1.093-.88-2.393-.88-3.9 0-1.467.3-2.767.9-3.9.6-1.133 1.433-2.013 2.5-2.64 1.08-.627 2.307-.94 3.68-.94zm14.102 0c1.413 0 2.646.287 3.7.86a5.98 5.98 0 012.48 2.5c.586 1.08.88 2.373.88 3.88 0 1.467-.3 2.767-.9 3.9a6.5 6.5 0 01-2.52 2.64c-1.067.627-2.287.94-3.66.94-1.414 0-2.654-.287-3.72-.86a6.038 6.038 0 01-2.46-2.48c-.587-1.093-.88-2.393-.88-3.9 0-1.467.3-2.767.9-3.9.6-1.133 1.433-2.013 2.5-2.64 1.08-.627 2.306-.94 3.68-.94zm-.08.36c-.734 0-1.38.3-1.94.9-.56.587-.994 1.413-1.3 2.48-.294 1.067-.44 2.287-.44 3.66 0 1.387.166 2.607.5 3.66.346 1.053.806 1.867 1.38 2.44.586.573 1.233.86 1.94.86.733 0 1.38-.293 1.94-.88.56-.6.986-1.433 1.28-2.5.306-1.067.46-2.287.46-3.66 0-1.387-.174-2.607-.52-3.66-.334-1.053-.794-1.867-1.38-2.44-.574-.573-1.214-.86-1.92-.86zm19.223-.08a37.453 37.453 0 00-.14 3.04c0 .627.02 1.133.06 1.52h-.46c-.267-1.507-.667-2.567-1.2-3.18-.534-.613-1.28-.92-2.24-.92h-.66c-.414 0-.714.033-.9.1a.6.6 0 00-.38.4c-.067.187-.1.493-.1.92v5.04h.7c.706 0 1.24-.26 1.6-.78.373-.52.633-1.14.78-1.86h.46c-.04.56-.06 1.187-.06 1.88v.96c0 .68.04 1.627.12 2.84h-.46c-.28-1.76-1.094-2.64-2.44-2.64h-.7v4.6c0 .533.053.927.16 1.18.12.24.32.4.6.48.293.08.753.127 1.38.14V45c-1.64-.04-2.86-.06-3.66-.06-.667 0-1.507.013-2.52.04l-.64.02v-.4c.44-.027.76-.08.96-.16a.663.663 0 00.42-.46c.08-.227.12-.593.12-1.1v-9.92c0-.507-.04-.873-.12-1.1a.663.663 0 00-.42-.46c-.2-.08-.52-.133-.96-.16v-.4c1.44.04 3.613.06 6.52.06 1.96 0 3.353-.02 4.18-.06zm11.836 0a37.137 37.137 0 00-.14 3.04c0 .627.02 1.133.06 1.52h-.46c-.267-1.507-.667-2.567-1.2-3.18-.534-.613-1.28-.92-2.24-.92h-.66c-.414 0-.714.033-.9.1a.599.599 0 00-.38.4c-.067.187-.1.493-.1.92v5.04h.7c.706 0 1.24-.26 1.6-.78.373-.52.633-1.14.78-1.86h.46c-.04.56-.06 1.187-.06 1.88v.96c0 .68.04 1.627.12 2.84h-.46c-.28-1.76-1.094-2.64-2.44-2.64h-.7v4.6c0 .533.053.927.16 1.18.12.24.32.4.6.48.293.08.753.127 1.38.14V45c-1.64-.04-2.86-.06-3.66-.06-.667 0-1.507.013-2.52.04l-.64.02v-.4c.44-.027.76-.08.96-.16a.663.663 0 00.42-.46c.08-.227.12-.593.12-1.1v-9.92c0-.507-.04-.873-.12-1.1a.663.663 0 00-.42-.46c-.2-.08-.52-.133-.96-.16v-.4c1.44.04 3.613.06 6.52.06 1.96 0 3.353-.02 4.18-.06zm12.096 11.12c0 1.227.046 2.24.14 3.04-.907-.04-2.434-.06-4.58-.06-2.907 0-5.08.02-6.52.06v-.4c.44-.027.76-.08.96-.16a.664.664 0 00.42-.46c.08-.227.12-.593.12-1.1v-9.92c0-.507-.04-.873-.12-1.1a.664.664 0 00-.42-.46c-.2-.08-.52-.133-.96-.16v-.4c1.44.04 3.613.06 6.52.06 1.96 0 3.353-.02 4.18-.06a35.336 35.336 0 00-.14 2.96c0 .587.02 1.04.06 1.36h-.46c-.2-1.427-.56-2.427-1.08-3s-1.254-.86-2.2-.86h-.82c-.414 0-.714.033-.9.1a.599.599 0 00-.38.4c-.067.187-.1.493-.1.92v4.96h.64c.706 0 1.24-.26 1.6-.78.373-.52.633-1.14.78-1.86h.46c-.04.56-.06 1.187-.06 1.88v.96c0 .68.04 1.627.12 2.84h-.46c-.28-1.76-1.094-2.64-2.44-2.64h-.64v5.04c0 .427.033.74.1.94a.597.597 0 00.38.38c.186.067.486.1.9.1h.98c.946 0 1.706-.32 2.28-.96.586-.653 1-1.753 1.24-3.3h.46c-.04.44-.06 1-.06 1.68zm12.675 0c0 1.227.047 2.24.14 3.04-.906-.04-2.433-.06-4.58-.06-2.906 0-5.08.02-6.52.06v-.4c.44-.027.76-.08.96-.16a.66.66 0 00.42-.46c.08-.227.12-.593.12-1.1v-9.92c0-.507-.04-.873-.12-1.1a.66.66 0 00-.42-.46c-.2-.08-.52-.133-.96-.16v-.4c1.44.04 3.614.06 6.52.06 1.96 0 3.354-.02 4.18-.06a35.768 35.768 0 00-.14 2.96c0 .587.02 1.04.06 1.36h-.46c-.2-1.427-.56-2.427-1.08-3s-1.253-.86-2.2-.86h-.82c-.413 0-.713.033-.9.1a.603.603 0 00-.38.4c-.066.187-.1.493-.1.92v4.96h.64c.707 0 1.24-.26 1.6-.78.374-.52.634-1.14.78-1.86h.46c-.04.56-.06 1.187-.06 1.88v.96c0 .68.04 1.627.12 2.84h-.46c-.28-1.76-1.093-2.64-2.44-2.64h-.64v5.04c0 .427.034.74.1.94a.601.601 0 00.38.38c.187.067.487.1.9.1h.98c.947 0 1.707-.32 2.28-.96.587-.653 1-1.753 1.24-3.3h.46c-.04.44-.06 1-.06 1.68z" fill="#fff"/><g clip-path="url(#clip0)"><path d="M41.676 4.243h-2.338l-.65-3.144a1.504 1.504 0 00-1.467-1.193H10.79c-.708 0-1.325.502-1.468 1.193l-.65 3.144H6.334A1.873 1.873 0 004.462 6.11V9.2c0 1.03.84 1.87 1.872 1.87h.92l.52 3.65a1.642 1.642 0 00-.81 1.656l3.476 24.375a1.653 1.653 0 001.24 1.363l.495 3.47a2.719 2.719 0 002.68 2.321h18.3c1.34 0 2.492-.998 2.68-2.321l.495-3.47a1.654 1.654 0 001.241-1.363l3.476-24.374a1.642 1.642 0 00-.81-1.656l.52-3.652h.92A1.873 1.873 0 0043.549 9.2V6.11c0-1.03-.84-1.868-1.873-1.868zm-2.025 11.936l-3.476 24.374a.237.237 0 01-.234.203h-6.749a.704.704 0 100 1.407h5.707l-.46 3.224a1.303 1.303 0 01-1.284 1.112h-18.3a1.303 1.303 0 01-1.284-1.112l-.46-3.224h18.8c.39 0-1.295-.314-1.295-.703 4-.39.684-.704.295-.704H12.069a.237.237 0 01-.233-.203L8.36 16.18a.233.233 0 01.221-.267l.029-.002H39.4l.029.002a.233.233 0 01.222.267zM8.678 11.07h30.655l-.49 3.433H9.167l-.49-3.433zm33.46-1.869a.462.462 0 01-.462.461H6.334a.463.463 0 01-.462-.46v-3.09c0-.255.208-.462.462-.462h6.31a.704.704 0 100-1.407h-2.531l.59-2.86a.089.089 0 01.087-.07h26.43c.042 0 .078.03.086.07l.591 2.86H15.926c-5.39 0-9.705.314-9.705.703 0 .389 5.315.704 5.705.704h29.75c.255 0 .462.207.462.461v3.09z" fill="#fff"/><path d="M29.31 22.54l-.016-.014c-2.343-2.316-6.614-1.835-9.532 1.079-1.396 1.392-2.285 3.131-2.505 4.899-.229 1.832.283 3.478 1.44 4.633h.002l.005.006c.977.971 2.301 1.485 3.793 1.485.275 0 .557-.018.843-.053 1.77-.22 3.514-1.108 4.909-2.5 2.926-2.92 3.404-7.197 1.064-9.532l-.004-.003zm-10.654 6.137c.182-1.458.929-2.906 2.103-4.078 1.406-1.403 3.167-2.143 4.741-2.143.724 0 1.407.157 2 .477-1.184.702-3.023 2.083-3.582 4.13-.487 1.78-3.126 3.75-4.575 4.665-.59-.81-.834-1.871-.687-3.05zm8.596 2.403c-1.174 1.172-2.625 1.917-4.086 2.098-1.032.128-1.974-.04-2.736-.477 1.454-.958 4.24-3.039 4.848-5.268.498-1.82 2.463-3.046 3.36-3.522 1.396 1.854.834 4.953-1.386 7.169z" fill="#F5D31E"/></g><defs><clipPath id="clip0"><path fill="#fff" d="M0 0h48v48H0z"/></clipPath></defs></svg>