<svg width="44" height="44" fill="none" xmlns="http://www.w3.org/2000/svg"><g clip-path="url(#clip0)"><path d="M26.89 22a4.89 4.89 0 11-9.78 0 4.89 4.89 0 019.78 0zm7.05-5.925c.07 1.545.085 2.009.085 5.925s-.015 4.38-.084 5.927c-.184 3.942-2.034 5.832-6.012 6.012-1.547.07-2.011.086-5.929.086-3.916 0-4.382-.015-5.925-.084-3.986-.182-5.832-2.076-6.012-6.012-.071-1.55-.088-2.013-.088-5.929 0-3.916.017-4.38.086-5.925.182-3.946 2.034-5.832 6.012-6.012 1.547-.071 2.011-.086 5.927-.086 3.916 0 4.382.015 5.927.084 3.975.182 5.83 2.068 6.014 6.014zM29.532 22a7.532 7.532 0 10-15.064.001A7.532 7.532 0 0029.531 22zm2.057-7.828a1.76 1.76 0 10-3.52 0 1.76 1.76 0 003.52 0zM44 0v44H0V0h44zm-7.333 22c0-3.982-.017-4.483-.088-6.046-.24-5.32-3.2-8.287-8.53-8.53-1.566-.074-2.065-.09-6.049-.09-3.984 0-4.48.016-6.046.087-5.328.244-8.287 3.2-8.533 8.53-.071 1.566-.088 2.067-.088 6.049 0 3.984.017 4.483.088 6.046.246 5.328 3.201 8.289 8.533 8.533 1.565.071 2.062.088 6.046.088 3.984 0 4.483-.017 6.048-.088 5.32-.244 8.29-3.2 8.53-8.533.072-1.563.089-2.062.089-6.046z" fill="#282625"/></g><defs><clipPath id="clip0"><path fill="#fff" d="M0 0h44v44H0z"/></clipPath></defs></svg>