<svg width="44" height="44" fill="none" xmlns="http://www.w3.org/2000/svg"><path fill-rule="evenodd" clip-rule="evenodd" d="M44 44H0V0h44v44zm-14.197-9.438c.394.28.9.35 1.353.178.45-.17.784-.558.885-1.027 1.062-4.99 3.64-17.626 4.606-22.165a.963.963 0 00-.318-.928.986.986 0 00-.975-.17c-5.124 1.896-20.907 7.817-27.359 10.206a1.01 1.01 0 00-.662.977c.015.431.306.807.724.934a501.66 501.66 0 016.692 2.067s1.773 5.361 2.699 8.085c.115.343.385.613.737.704.354.092.728-.003.992-.253l3.784-3.57s4.365 3.2 6.842 4.962zM16.346 23.958l2.052 6.769.456-4.287 12.448-11.227a.338.338 0 00.04-.46.348.348 0 00-.46-.079l-14.536 9.284z" fill="#282625"/></svg>