<svg width="133" height="48" viewBox="0 0 133 48" fill="none" xmlns="http://www.w3.org/2000/svg">
<path d="M59 6.56C60.64 6.56 61.9067 7.13333 62.8 8.28C63.6933 9.42667 64.14 11.0867 64.14 13.26C64.14 14.86 63.88 16.2667 63.36 17.48C62.84 18.6933 62.12 19.6333 61.2 20.3C60.28 20.9533 59.2267 21.28 58.04 21.28C57.0133 21.28 56.1667 21.0867 55.5 20.7C55.18 20.5267 54.9133 20.3 54.7 20.02C54.5 19.7267 54.4 19.4067 54.4 19.06C54.4 18.62 54.5467 18.26 54.84 17.98C55.1467 17.7 55.54 17.56 56.02 17.56C56.4733 17.56 56.8333 17.6933 57.1 17.96C57.38 18.2133 57.52 18.56 57.52 19C57.52 19.32 57.4133 19.6267 57.2 19.92C56.9867 20.2 56.68 20.4 56.28 20.52C56.4667 20.6533 56.7 20.7533 56.98 20.82C57.26 20.8867 57.5333 20.92 57.8 20.92C58.7733 20.92 59.5667 20.3667 60.18 19.26C60.8067 18.14 61.12 16.2533 61.12 13.6V13.32C60.64 14.9733 59.5667 15.8 57.9 15.8C57.1933 15.8 56.5333 15.6333 55.92 15.3C55.3067 14.9667 54.8067 14.4667 54.42 13.8C54.0467 13.12 53.86 12.3067 53.86 11.36C53.86 10.3333 54.08 9.46 54.52 8.74C54.9733 8.02 55.5867 7.48 56.36 7.12C57.1333 6.74667 58.0133 6.56 59 6.56ZM58.66 15.28C59.14 15.28 59.62 15.04 60.1 14.56C60.58 14.08 60.9133 13.2933 61.1 12.2C60.9533 8.70667 60.22 6.96 58.9 6.96C58.2867 6.96 57.7933 7.31333 57.42 8.02C57.06 8.71333 56.88 9.81333 56.88 11.32C56.88 12.6667 57.0333 13.6667 57.34 14.32C57.66 14.96 58.1 15.28 58.66 15.28ZM72.9289 13.56C74.6622 13.6933 75.9356 14.0933 76.7489 14.76C77.5622 15.4267 77.9689 16.2133 77.9689 17.12C77.9689 18.36 77.4822 19.32 76.5089 20C75.5356 20.6667 74.1822 21 72.4489 21C72.0622 21 71.7356 20.9933 71.4689 20.98C70.5889 20.9533 69.7289 20.94 68.8889 20.94C67.5156 20.94 66.4889 20.96 65.8089 21V20.6C66.2489 20.5733 66.5689 20.52 66.7689 20.44C66.9822 20.36 67.1222 20.2067 67.1889 19.98C67.2689 19.7533 67.3089 19.3867 67.3089 18.88V8.96C67.3089 8.45333 67.2689 8.08667 67.1889 7.86C67.1222 7.63333 66.9822 7.48 66.7689 7.4C66.5689 7.32 66.2489 7.26667 65.8089 7.24V6.84C66.4889 6.88 67.5022 6.9 68.8489 6.9L71.0689 6.88C71.3356 6.86667 71.6422 6.86 71.9889 6.86C73.5889 6.86 74.8089 7.14667 75.6489 7.72C76.5022 8.29333 76.9289 9.05333 76.9289 10C76.9289 10.7733 76.5889 11.4933 75.9089 12.16C75.2422 12.8267 74.2489 13.28 72.9289 13.52V13.56ZM71.7289 7.24C71.3689 7.24 71.1022 7.28667 70.9289 7.38C70.7689 7.47333 70.6556 7.64 70.5889 7.88C70.5222 8.12 70.4889 8.48 70.4889 8.96V13.48H71.3489C72.2156 13.48 72.8222 13.1867 73.1689 12.6C73.5156 12 73.6889 11.2067 73.6889 10.22C73.6889 9.22 73.5289 8.47333 73.2089 7.98C72.9022 7.48667 72.4089 7.24 71.7289 7.24ZM71.8689 20.54C73.7222 20.54 74.6489 19.3733 74.6489 17.04C74.6489 15.9867 74.3822 15.1867 73.8489 14.64C73.3156 14.0933 72.4756 13.82 71.3289 13.82H70.4889V18.88C70.4889 19.36 70.5222 19.7133 70.5889 19.94C70.6556 20.1667 70.7822 20.3267 70.9689 20.42C71.1689 20.5 71.4689 20.54 71.8689 20.54ZM90.513 19.32C90.6863 19.76 90.8863 20.08 91.113 20.28C91.3396 20.48 91.5596 20.5867 91.773 20.6V21C90.973 20.96 89.9596 20.94 88.733 20.94C87.373 20.94 86.3596 20.96 85.693 21V20.6C86.1996 20.5733 86.5596 20.5133 86.773 20.42C86.9863 20.3133 87.093 20.1333 87.093 19.88C87.093 19.64 87.013 19.32 86.853 18.92L85.653 15.64H81.293L80.773 17.02C80.3996 17.98 80.213 18.72 80.213 19.24C80.213 19.7333 80.3596 20.08 80.653 20.28C80.9596 20.4667 81.4063 20.5733 81.993 20.6V21C81.0863 20.96 80.2596 20.94 79.513 20.94C78.8996 20.94 78.393 20.96 77.993 21V20.6C78.6463 20.48 79.2196 19.78 79.713 18.5L84.273 6.8C84.4196 6.81333 84.653 6.82 84.973 6.82C85.293 6.82 85.5196 6.81333 85.653 6.8L90.513 19.32ZM85.513 15.24L83.533 9.84L81.453 15.24H85.513ZM105.482 20.12C105.122 20.5333 104.736 20.8267 104.322 21C103.909 21.1867 103.409 21.28 102.822 21.28C102.049 21.28 101.436 21.12 100.982 20.8C100.542 20.4667 100.256 19.9067 100.122 19.12L99.7622 17.12C99.5889 16.1467 99.3755 15.4333 99.1222 14.98C98.8822 14.5133 98.4755 14.28 97.9022 14.28H96.6022V18.88C96.6022 19.3867 96.6355 19.7533 96.7022 19.98C96.7822 20.2067 96.9222 20.36 97.1222 20.44C97.3222 20.52 97.6489 20.5733 98.1022 20.6V21C97.3822 20.96 96.3755 20.94 95.0822 20.94C93.6555 20.94 92.6022 20.96 91.9222 21V20.6C92.3622 20.5733 92.6822 20.52 92.8822 20.44C93.0955 20.36 93.2355 20.2067 93.3022 19.98C93.3822 19.7533 93.4222 19.3867 93.4222 18.88V8.96C93.4222 8.45333 93.3822 8.08667 93.3022 7.86C93.2355 7.63333 93.0955 7.48 92.8822 7.4C92.6822 7.32 92.3622 7.26667 91.9222 7.24V6.84C92.6022 6.88 93.6155 6.9 94.9622 6.9L97.1822 6.88C97.4489 6.86667 97.7555 6.86 98.1022 6.86C99.9422 6.86 101.322 7.16 102.242 7.76C103.176 8.36 103.642 9.22 103.642 10.34C103.642 11.2867 103.296 12.12 102.602 12.84C101.909 13.56 100.762 14.0133 99.1622 14.2C100.362 14.3067 101.256 14.5667 101.842 14.98C102.429 15.3933 102.809 16.0133 102.982 16.84L103.442 18.9C103.549 19.4333 103.669 19.8067 103.802 20.02C103.949 20.2333 104.149 20.34 104.402 20.34C104.562 20.3267 104.696 20.2867 104.802 20.22C104.922 20.1533 105.056 20.04 105.202 19.88L105.482 20.12ZM97.8422 7.24C97.4822 7.24 97.2155 7.28667 97.0422 7.38C96.8822 7.47333 96.7689 7.64 96.7022 7.88C96.6355 8.12 96.6022 8.48 96.6022 8.96V13.88H97.4622C98.5555 13.88 99.3022 13.5933 99.7022 13.02C100.116 12.4333 100.322 11.6133 100.322 10.56C100.322 9.46667 100.129 8.64 99.7422 8.08C99.3555 7.52 98.7222 7.24 97.8422 7.24Z" fill="#F5D31E"/>
<path d="M60.94 30.56C61.74 30.56 62.42 30.6733 62.98 30.9C63.54 31.1267 64.0867 31.4467 64.62 31.86C64.7667 31.98 64.8933 32.04 65 32.04C65.2667 32.04 65.44 31.64 65.52 30.84H65.98C65.9267 31.7467 65.9 33.36 65.9 35.68H65.44C65.32 34.6933 65.16 33.94 64.96 33.42C64.76 32.9 64.42 32.4467 63.94 32.06C63.6067 31.74 63.22 31.5 62.78 31.34C62.34 31.1667 61.88 31.08 61.4 31.08C60.0533 31.08 59.0533 31.74 58.4 33.06C57.7467 34.3667 57.42 36 57.42 37.96C57.42 39.9067 57.76 41.5333 58.44 42.84C59.12 44.1467 60.1333 44.8 61.48 44.8C61.9333 44.8 62.38 44.72 62.82 44.56C63.2733 44.3867 63.6533 44.14 63.96 43.82C64.4533 43.4467 64.7933 42.98 64.98 42.42C65.18 41.86 65.3333 41.04 65.44 39.96H65.9C65.9 42.3733 65.9267 44.0533 65.98 45H65.52C65.48 44.5733 65.42 44.2733 65.34 44.1C65.2733 43.9133 65.1733 43.82 65.04 43.82C64.9333 43.82 64.7933 43.8733 64.62 43.98C64.02 44.4067 63.4467 44.7333 62.9 44.96C62.3533 45.1733 61.6933 45.28 60.92 45.28C59.5067 45.28 58.2667 44.9933 57.2 44.42C56.1467 43.8467 55.3267 43.02 54.74 41.94C54.1533 40.8467 53.86 39.5467 53.86 38.04C53.86 36.5733 54.16 35.2733 54.76 34.14C55.36 33.0067 56.1933 32.1267 57.26 31.5C58.34 30.8733 59.5667 30.56 60.94 30.56ZM75.0416 30.56C76.4549 30.56 77.6882 30.8467 78.7416 31.42C79.8082 31.9933 80.6349 32.8267 81.2216 33.92C81.8082 35 82.1016 36.2933 82.1016 37.8C82.1016 39.2667 81.8016 40.5667 81.2016 41.7C80.6016 42.8333 79.7616 43.7133 78.6816 44.34C77.6149 44.9667 76.3949 45.28 75.0216 45.28C73.6082 45.28 72.3682 44.9933 71.3016 44.42C70.2482 43.8467 69.4282 43.02 68.8416 41.94C68.2549 40.8467 67.9616 39.5467 67.9616 38.04C67.9616 36.5733 68.2616 35.2733 68.8616 34.14C69.4616 33.0067 70.2949 32.1267 71.3616 31.5C72.4416 30.8733 73.6682 30.56 75.0416 30.56ZM74.9616 30.92C74.2282 30.92 73.5816 31.22 73.0216 31.82C72.4616 32.4067 72.0282 33.2333 71.7216 34.3C71.4282 35.3667 71.2816 36.5867 71.2816 37.96C71.2816 39.3467 71.4482 40.5667 71.7816 41.62C72.1282 42.6733 72.5882 43.4867 73.1616 44.06C73.7482 44.6333 74.3949 44.92 75.1016 44.92C75.8349 44.92 76.4816 44.6267 77.0416 44.04C77.6016 43.44 78.0282 42.6067 78.3216 41.54C78.6282 40.4733 78.7816 39.2533 78.7816 37.88C78.7816 36.4933 78.6082 35.2733 78.2616 34.22C77.9282 33.1667 77.4682 32.3533 76.8816 31.78C76.3082 31.2067 75.6682 30.92 74.9616 30.92ZM94.1847 30.84C94.0914 31.9733 94.0447 32.9867 94.0447 33.88C94.0447 34.5067 94.0647 35.0133 94.1047 35.4H93.6447C93.378 33.8933 92.978 32.8333 92.4447 32.22C91.9114 31.6067 91.1647 31.3 90.2047 31.3H89.5447C89.1314 31.3 88.8314 31.3333 88.6447 31.4C88.458 31.4667 88.3314 31.6 88.2647 31.8C88.198 31.9867 88.1647 32.2933 88.1647 32.72V37.76H88.8647C89.5714 37.76 90.1047 37.5 90.4647 36.98C90.838 36.46 91.098 35.84 91.2447 35.12H91.7047C91.6647 35.68 91.6447 36.3067 91.6447 37V37.96C91.6447 38.64 91.6847 39.5867 91.7647 40.8H91.3047C91.0247 39.04 90.2114 38.16 88.8647 38.16H88.1647V42.76C88.1647 43.2933 88.218 43.6867 88.3247 43.94C88.4447 44.18 88.6447 44.34 88.9247 44.42C89.218 44.5 89.678 44.5467 90.3047 44.56V45C88.6647 44.96 87.4447 44.94 86.6447 44.94C85.978 44.94 85.138 44.9533 84.1247 44.98L83.4847 45V44.6C83.9247 44.5733 84.2447 44.52 84.4447 44.44C84.658 44.36 84.798 44.2067 84.8647 43.98C84.9447 43.7533 84.9847 43.3867 84.9847 42.88V32.96C84.9847 32.4533 84.9447 32.0867 84.8647 31.86C84.798 31.6333 84.658 31.48 84.4447 31.4C84.2447 31.32 83.9247 31.2667 83.4847 31.24V30.84C84.9247 30.88 87.098 30.9 90.0047 30.9C91.9647 30.9 93.358 30.88 94.1847 30.84ZM106.021 30.84C105.927 31.9733 105.881 32.9867 105.881 33.88C105.881 34.5067 105.901 35.0133 105.941 35.4H105.481C105.214 33.8933 104.814 32.8333 104.281 32.22C103.747 31.6067 103.001 31.3 102.041 31.3H101.381C100.967 31.3 100.667 31.3333 100.481 31.4C100.294 31.4667 100.167 31.6 100.101 31.8C100.034 31.9867 100.001 32.2933 100.001 32.72V37.76H100.701C101.407 37.76 101.941 37.5 102.301 36.98C102.674 36.46 102.934 35.84 103.081 35.12H103.541C103.501 35.68 103.481 36.3067 103.481 37V37.96C103.481 38.64 103.521 39.5867 103.601 40.8H103.141C102.861 39.04 102.047 38.16 100.701 38.16H100.001V42.76C100.001 43.2933 100.054 43.6867 100.161 43.94C100.281 44.18 100.481 44.34 100.761 44.42C101.054 44.5 101.514 44.5467 102.141 44.56V45C100.501 44.96 99.2806 44.94 98.4806 44.94C97.814 44.94 96.974 44.9533 95.9606 44.98L95.3206 45V44.6C95.7606 44.5733 96.0806 44.52 96.2806 44.44C96.494 44.36 96.634 44.2067 96.7006 43.98C96.7806 43.7533 96.8206 43.3867 96.8206 42.88V32.96C96.8206 32.4533 96.7806 32.0867 96.7006 31.86C96.634 31.6333 96.494 31.48 96.2806 31.4C96.0806 31.32 95.7606 31.2667 95.3206 31.24V30.84C96.7606 30.88 98.934 30.9 101.841 30.9C103.801 30.9 105.194 30.88 106.021 30.84ZM118.117 41.96C118.117 43.1867 118.163 44.2 118.257 45C117.35 44.96 115.823 44.94 113.677 44.94C110.77 44.94 108.597 44.96 107.157 45V44.6C107.597 44.5733 107.917 44.52 108.117 44.44C108.33 44.36 108.47 44.2067 108.537 43.98C108.617 43.7533 108.657 43.3867 108.657 42.88V32.96C108.657 32.4533 108.617 32.0867 108.537 31.86C108.47 31.6333 108.33 31.48 108.117 31.4C107.917 31.32 107.597 31.2667 107.157 31.24V30.84C108.597 30.88 110.77 30.9 113.677 30.9C115.637 30.9 117.03 30.88 117.857 30.84C117.763 31.9467 117.717 32.9333 117.717 33.8C117.717 34.3867 117.737 34.84 117.777 35.16H117.317C117.117 33.7333 116.757 32.7333 116.237 32.16C115.717 31.5867 114.983 31.3 114.037 31.3H113.217C112.803 31.3 112.503 31.3333 112.317 31.4C112.13 31.4667 112.003 31.6 111.937 31.8C111.87 31.9867 111.837 32.2933 111.837 32.72V37.68H112.477C113.183 37.68 113.717 37.42 114.077 36.9C114.45 36.38 114.71 35.76 114.857 35.04H115.317C115.277 35.6 115.257 36.2267 115.257 36.92V37.88C115.257 38.56 115.297 39.5067 115.377 40.72H114.917C114.637 38.96 113.823 38.08 112.477 38.08H111.837V43.12C111.837 43.5467 111.87 43.86 111.937 44.06C112.003 44.2467 112.13 44.3733 112.317 44.44C112.503 44.5067 112.803 44.54 113.217 44.54H114.197C115.143 44.54 115.903 44.22 116.477 43.58C117.063 42.9267 117.477 41.8267 117.717 40.28H118.177C118.137 40.72 118.117 41.28 118.117 41.96ZM130.792 41.96C130.792 43.1867 130.839 44.2 130.932 45C130.026 44.96 128.499 44.94 126.352 44.94C123.446 44.94 121.272 44.96 119.832 45V44.6C120.272 44.5733 120.592 44.52 120.792 44.44C121.006 44.36 121.146 44.2067 121.212 43.98C121.292 43.7533 121.332 43.3867 121.332 42.88V32.96C121.332 32.4533 121.292 32.0867 121.212 31.86C121.146 31.6333 121.006 31.48 120.792 31.4C120.592 31.32 120.272 31.2667 119.832 31.24V30.84C121.272 30.88 123.446 30.9 126.352 30.9C128.312 30.9 129.706 30.88 130.532 30.84C130.439 31.9467 130.392 32.9333 130.392 33.8C130.392 34.3867 130.412 34.84 130.452 35.16H129.992C129.792 33.7333 129.432 32.7333 128.912 32.16C128.392 31.5867 127.659 31.3 126.712 31.3H125.892C125.479 31.3 125.179 31.3333 124.992 31.4C124.806 31.4667 124.679 31.6 124.612 31.8C124.546 31.9867 124.512 32.2933 124.512 32.72V37.68H125.152C125.859 37.68 126.392 37.42 126.752 36.9C127.126 36.38 127.386 35.76 127.532 35.04H127.992C127.952 35.6 127.932 36.2267 127.932 36.92V37.88C127.932 38.56 127.972 39.5067 128.052 40.72H127.592C127.312 38.96 126.499 38.08 125.152 38.08H124.512V43.12C124.512 43.5467 124.546 43.86 124.612 44.06C124.679 44.2467 124.806 44.3733 124.992 44.44C125.179 44.5067 125.479 44.54 125.892 44.54H126.872C127.819 44.54 128.579 44.22 129.152 43.58C129.739 42.9267 130.152 41.8267 130.392 40.28H130.852C130.812 40.72 130.792 41.28 130.792 41.96Z" fill="white"/>
<g clip-path="url(#clip0)">
<path d="M41.676 4.24256H39.338L38.6885 1.09937C38.5454 0.40796 37.9282 -0.09375 37.2211 -0.09375H10.7895C10.0821 -0.09375 9.46491 0.40796 9.32218 1.09937L8.67235 4.24256H6.33428C5.30175 4.24256 4.46185 5.08082 4.46185 6.11134V9.20107C4.46185 10.2316 5.30175 11.0702 6.33428 11.0702H7.25307L7.77374 14.7217C7.61596 14.8125 7.47213 14.9286 7.34994 15.0689C7.03732 15.4289 6.89642 15.9057 6.96357 16.3777L10.4395 40.7517C10.5352 41.424 11.0412 41.9572 11.6804 42.1147L12.175 45.5849C12.364 46.9084 13.5162 47.9063 14.8554 47.9063H33.1552C34.4945 47.9063 35.6467 46.9084 35.8356 45.5849L36.3302 42.1147C36.9694 41.9572 37.4754 41.424 37.5712 40.7517L41.0471 16.3777C41.1142 15.9057 40.9733 15.4289 40.6607 15.0689C40.5385 14.9286 40.3947 14.8125 40.2366 14.7217L40.7576 11.0702H41.6764C42.7089 11.0702 43.5488 10.2316 43.5488 9.20107V6.11134C43.5484 5.08082 42.7085 4.24256 41.676 4.24256ZM39.6506 16.1792L36.1747 40.5532C36.1582 40.6689 36.0576 40.7557 35.9409 40.7557H29.192C28.8027 40.7557 28.4872 41.0706 28.4872 41.4596C28.4872 41.8485 28.8027 42.1634 29.192 42.1634H34.8989L34.4391 45.3868C34.3485 46.0207 33.7966 46.499 33.1549 46.499H14.8554C14.2137 46.499 13.6618 46.0207 13.5712 45.3868L13.1118 42.1634H31.9106C32.3003 42.1634 30.6158 41.8485 30.6158 41.4596C34.6158 41.0706 31.3003 40.7557 30.9106 40.7557H12.0694C11.9527 40.7557 11.8521 40.6689 11.8356 40.5532L8.35972 16.1792C8.34652 16.0866 8.38871 16.0218 8.41513 15.9914C8.44045 15.9624 8.49549 15.9163 8.58135 15.9119C8.59089 15.9115 8.60006 15.9108 8.60997 15.9101H39.4003C39.4099 15.9108 39.4194 15.9115 39.4289 15.9119C39.5148 15.9163 39.5698 15.9624 39.5952 15.9914C39.6216 16.0218 39.6638 16.0866 39.6506 16.1792ZM8.67785 11.0702H39.3328L38.8433 14.5027H9.16733L8.67785 11.0702ZM42.1383 9.20107C42.1383 9.45559 41.931 9.6625 41.676 9.6625H6.33428C6.07964 9.6625 5.87196 9.45559 5.87196 9.20107V6.11134C5.87196 5.85682 6.07964 5.64991 6.33428 5.64991H12.6443C13.0336 5.64991 13.3492 5.33497 13.3492 4.94606C13.3492 4.5575 13.0336 4.24256 12.6443 4.24256H10.1125L10.7033 1.38391C10.7117 1.34326 10.7481 1.3136 10.7895 1.3136H37.2211C37.2626 1.3136 37.2989 1.34326 37.3074 1.38391L37.8981 4.24256H15.9258C10.5361 4.24256 6.22054 4.5575 6.22054 4.94606C6.22054 5.33497 11.5361 5.64991 11.9258 5.64991H41.676C41.931 5.64991 42.1383 5.85682 42.1383 6.11134V9.20107Z" fill="white"/>
<path d="M29.3094 22.5396C29.3047 22.5348 29.2995 22.5304 29.2944 22.5257C26.9505 20.2105 22.6805 20.691 19.7616 23.6045C18.3665 24.9965 17.4771 26.7364 17.257 28.5037C17.0284 30.3362 17.5402 31.9816 18.6979 33.137C18.6979 33.1374 18.6982 33.1374 18.6986 33.1378C18.7005 33.1396 18.7023 33.1414 18.7041 33.1429C19.6809 34.1145 21.0051 34.6282 22.4967 34.6282C22.7723 34.6282 23.0541 34.6103 23.3399 34.5751C25.1107 34.3554 26.854 33.4674 28.249 32.0754C31.1753 29.1545 31.6526 24.8782 29.3127 22.5429C29.3116 22.5414 29.3105 22.5407 29.3094 22.5396ZM18.6564 28.6773C18.838 27.2194 19.5847 25.7714 20.7586 24.5995C22.165 23.1958 23.9259 22.4561 25.5004 22.4561C26.2239 22.4561 26.9075 22.6132 27.4997 22.9333C26.3157 23.6353 24.477 25.0163 23.9178 27.063C23.4313 28.8425 20.7916 30.8138 19.3429 31.7278C18.7529 30.9189 18.5093 29.8569 18.6564 28.6773ZM27.2517 31.08C26.0775 32.2519 24.6267 32.9968 23.166 33.178C22.1342 33.3062 21.1919 33.1374 20.4298 32.7009C21.8839 31.7429 24.6693 29.662 25.2784 27.4333C25.7756 25.6128 27.7408 24.3871 28.6383 23.9107C30.0341 25.7652 29.472 28.8637 27.2517 31.08Z" fill="#F5D31E"/>
</g>
<defs>
<clipPath id="clip0">
<rect width="48" height="48" fill="white"/>
</clipPath>
</defs>
</svg>
