<svg width="16" height="22" viewBox="0 0 16 22" fill="none" xmlns="http://www.w3.org/2000/svg">
<path d="M8 0.498535C3.86469 0.498535 0.5 3.7165 0.5 7.67041C0.5 9.55337 1.35828 12.0574 3.05094 15.1132C4.41031 17.5667 5.98297 19.7852 6.80093 20.8892C6.93915 21.0778 7.11987 21.2312 7.32844 21.3369C7.53701 21.4426 7.76756 21.4977 8.0014 21.4977C8.23524 21.4977 8.46579 21.4426 8.67436 21.3369C8.88293 21.2312 9.06365 21.0778 9.20187 20.8892C10.0184 19.7852 11.5925 17.5667 12.9519 15.1132C14.6417 12.0584 15.5 9.55431 15.5 7.67041C15.5 3.7165 12.1353 0.498535 8 0.498535ZM8 10.9985C7.40665 10.9985 6.82663 10.8226 6.33329 10.4929C5.83994 10.1633 5.45542 9.69476 5.22836 9.14658C5.0013 8.5984 4.94189 7.9952 5.05764 7.41326C5.1734 6.83132 5.45912 6.29677 5.87868 5.87721C6.29823 5.45765 6.83278 5.17193 7.41473 5.05618C7.99667 4.94042 8.59987 4.99983 9.14804 5.22689C9.69622 5.45396 10.1648 5.83847 10.4944 6.33182C10.824 6.82517 11 7.40519 11 7.99853C10.9991 8.79391 10.6828 9.55647 10.1204 10.1189C9.55794 10.6813 8.79538 10.9977 8 10.9985Z" fill="#282625"/>
</svg>
