<svg width="44" height="44" viewBox="0 0 44 44" fill="none" xmlns="http://www.w3.org/2000/svg">
<g clip-path="url(#clip0)">
<path d="M26.8895 22C26.8895 24.7005 24.7005 26.8895 22 26.8895C19.2995 26.8895 17.1105 24.7023 17.1105 22C17.1105 19.2995 19.2995 17.1105 22 17.1105C24.7005 17.1105 26.8895 19.2995 26.8895 22ZM33.9405 16.0747C34.0102 17.6202 34.0248 18.084 34.0248 22C34.0248 25.916 34.0102 26.3798 33.9405 27.9272C33.7572 31.8688 31.9073 33.759 27.929 33.9387C26.3817 34.0083 25.9178 34.0248 22 34.0248C18.084 34.0248 17.6183 34.0102 16.0747 33.9405C12.089 33.759 10.2428 31.8652 10.0632 27.929C9.99167 26.3798 9.97517 25.916 9.97517 22C9.97517 18.084 9.99167 17.6202 10.0613 16.0747C10.2428 12.1293 12.0945 10.2428 16.0728 10.0632C17.6202 9.99167 18.084 9.977 22 9.977C25.916 9.977 26.3817 9.99167 27.9272 10.0613C31.9018 10.2428 33.7572 12.1293 33.9405 16.0747ZM29.5313 22C29.5313 17.8402 26.158 14.4687 22 14.4687C17.8402 14.4687 14.4687 17.8402 14.4687 22C14.4687 26.1598 17.842 29.5313 22 29.5313C26.1598 29.5313 29.5313 26.1598 29.5313 22ZM31.5883 14.1717C31.5883 13.2 30.8 12.4117 29.8283 12.4117C28.8567 12.4117 28.0683 13.2 28.0683 14.1717C28.0683 15.1433 28.8567 15.9317 29.8283 15.9317C30.8018 15.9317 31.5883 15.1433 31.5883 14.1717ZM44 0V44H0V0H44ZM36.6667 22C36.6667 18.018 36.6502 17.5175 36.5787 15.9537C36.3385 10.6333 33.3795 7.667 28.0482 7.42317C26.4825 7.34983 25.9838 7.33333 22 7.33333C18.0162 7.33333 17.5193 7.34983 15.9537 7.42133C10.626 7.66517 7.667 10.6205 7.42133 15.9518C7.34983 17.5175 7.33333 18.018 7.33333 22C7.33333 25.9838 7.34983 26.4825 7.42133 28.0463C7.667 33.374 10.6223 36.3348 15.9537 36.5787C17.5193 36.6502 18.0162 36.6667 22 36.6667C25.9838 36.6667 26.4825 36.6502 28.0482 36.5787C33.3685 36.3348 36.3385 33.3795 36.5787 28.0463C36.6502 26.4825 36.6667 25.9838 36.6667 22Z" fill="#282625"/>
</g>
<defs>
<clipPath id="clip0">
<rect width="44" height="44" fill="white"/>
</clipPath>
</defs>
</svg>
