<svg width="24" height="18" viewBox="0 0 24 18" fill="none" xmlns="http://www.w3.org/2000/svg">
<path d="M12.3148 9.45787C12.1313 9.6066 11.8687 9.6066 11.6852 9.45787L1.11127 0.888449C0.745306 0.591861 0.955026 0 1.42608 0H22.5739C23.045 0 23.2547 0.591862 22.8887 0.88845L12.3148 9.45787ZM12.3148 12.0319C12.1313 12.1806 11.8687 12.1806 11.6852 12.0319L0.814809 3.22233C0.487946 2.95744 0 3.19006 0 3.61079V17.5C0 17.7761 0.223858 18 0.5 18H23.5C23.7761 18 24 17.7761 24 17.5V3.61079C24 3.19006 23.5121 2.95744 23.1852 3.22233L12.3148 12.0319Z" fill="#282625"/>
</svg>
