<svg width="23" height="25" viewBox="0 0 23 25" fill="none" xmlns="http://www.w3.org/2000/svg">
<path d="M18.3355 18.1272L13.2085 23.2542C12.7554 23.7068 12.141 23.9611 11.5005 23.9611C10.86 23.9611 10.2457 23.7068 9.79255 23.2542L4.66438 18.1272C3.31252 16.7753 2.39191 15.0528 2.01896 13.1777C1.64601 11.3026 1.83747 9.35895 2.56914 7.59263C3.3008 5.82631 4.5398 4.31661 6.12946 3.25444C7.71913 2.19228 9.58806 1.62535 11.4999 1.62535C13.4118 1.62535 15.2807 2.19228 16.8704 3.25444C18.46 4.31661 19.699 5.82631 20.4307 7.59263C21.1624 9.35895 21.3538 11.3026 20.9809 13.1777C20.6079 15.0528 19.6873 16.7753 18.3355 18.1272V18.1272Z" stroke="white" stroke-width="2" stroke-linecap="round" stroke-linejoin="round"/>
</svg>
