<svg width="22" height="22" viewBox="0 0 22 22" fill="none" xmlns="http://www.w3.org/2000/svg">
<path d="M17.328 21.4996C16.413 21.4996 15.1277 21.1686 13.203 20.0933C10.8626 18.7808 9.05225 17.5691 6.72444 15.2474C4.48007 13.0044 3.38788 11.5522 1.85929 8.77065C0.132414 5.63003 0.426788 3.98378 0.755851 3.28019C1.14773 2.43925 1.72616 1.93628 2.47382 1.43706C2.89848 1.15883 3.34788 0.920323 3.81632 0.724565C3.86319 0.704409 3.90679 0.68519 3.94569 0.667846C4.17772 0.563315 4.52929 0.405346 4.9746 0.574096C5.27179 0.685659 5.5371 0.91394 5.95241 1.3241C6.80413 2.1641 7.96803 4.03488 8.39741 4.95363C8.68569 5.57284 8.87647 5.98159 8.87694 6.44003C8.87694 6.97675 8.60694 7.39066 8.27928 7.83737C8.21788 7.92128 8.15694 8.00144 8.09788 8.07925C7.74116 8.548 7.66288 8.68347 7.71444 8.92534C7.81897 9.41144 8.5985 10.8585 9.8796 12.1367C11.1607 13.415 12.566 14.1453 13.054 14.2494C13.3062 14.3033 13.4444 14.2217 13.9282 13.8524C13.9976 13.7994 14.0688 13.7446 14.1433 13.6897C14.643 13.318 15.0377 13.055 15.5618 13.055H15.5646C16.0207 13.055 16.4112 13.2528 17.058 13.5791C17.9018 14.0047 19.8288 15.1536 20.674 16.0063C21.0851 16.4207 21.3143 16.685 21.4263 16.9817C21.5951 17.4285 21.4362 17.7786 21.3326 18.013C21.3152 18.0519 21.296 18.0946 21.2758 18.1419C21.0785 18.6095 20.8386 19.058 20.5591 19.4816C20.0608 20.2269 19.556 20.8039 18.7132 21.1963C18.2804 21.401 17.8068 21.5047 17.328 21.4996Z" fill="#282625"/>
</svg>
