<svg width="44" height="44" viewBox="0 0 44 44" fill="none" xmlns="http://www.w3.org/2000/svg">
<path fill-rule="evenodd" clip-rule="evenodd" d="M44 44H0V0H44V44ZM29.8027 34.562C30.1968 34.8425 30.7028 34.9122 31.1557 34.7398C31.6067 34.5693 31.9403 34.1825 32.0412 33.7132C33.1027 28.7228 35.6803 16.0875 36.6465 11.5482C36.718 11.2053 36.597 10.8497 36.3293 10.6205C36.0598 10.3932 35.6858 10.3272 35.354 10.45C30.2298 12.3457 14.4467 18.2673 7.99517 20.6562C7.58633 20.8065 7.3205 21.2007 7.33333 21.6333C7.348 22.0642 7.6395 22.44 8.0575 22.5665C10.9505 23.43 14.7492 24.6345 14.7492 24.6345C14.7492 24.6345 16.522 29.9952 17.4478 32.7195C17.5633 33.0623 17.8328 33.3318 18.1848 33.4235C18.5387 33.5152 18.9127 33.4198 19.1767 33.1705C20.6635 31.768 22.9607 29.5992 22.9607 29.5992C22.9607 29.5992 27.3258 32.8002 29.8027 34.562ZM16.346 23.958L18.3975 30.7267L18.854 26.4403C18.854 26.4403 26.7813 19.2903 31.3023 15.213C31.4343 15.0938 31.4527 14.894 31.3427 14.7528C31.2327 14.6117 31.0328 14.5787 30.8825 14.674C25.6447 18.0198 16.346 23.958 16.346 23.958Z" fill="#282625"/>
</svg>
