<svg width="22" height="22" fill="none" xmlns="http://www.w3.org/2000/svg"><path d="M17.328 21.5c-.915 0-2.2-.331-4.125-1.407-2.34-1.312-4.15-2.524-6.479-4.846-2.244-2.243-3.336-3.695-4.865-6.476C.132 5.63.427 3.984.756 3.28c.392-.842.97-1.345 1.718-1.844A8.264 8.264 0 013.816.725l.13-.057c.232-.105.583-.263 1.029-.094.297.112.562.34.977.75.852.84 2.016 2.71 2.445 3.63.289.619.48 1.028.48 1.486 0 .537-.27.95-.598 1.397-.061.084-.122.164-.181.242-.357.469-.435.604-.384.846.105.486.884 1.933 2.166 3.212 1.28 1.278 2.686 2.008 3.174 2.112.252.054.39-.027.874-.397.07-.053.14-.107.215-.162.5-.372.895-.635 1.419-.635h.003c.456 0 .846.198 1.493.524.844.426 2.77 1.575 3.616 2.427.411.415.64.679.752.976.17.447.01.797-.093 1.031l-.057.129a8.27 8.27 0 01-.717 1.34c-.498.745-1.003 1.322-1.846 1.714a3.16 3.16 0 01-1.385.304z" fill="#282625"/></svg>